C:\Users\r0593348\3dpredictsim\Results\batch_windlass\Pog_s1_tmt_bCst_d00_k1500_WL20_ig24_pas_GRF.mot
nRows=22
nColumns=19

name C:\Users\r0593348\3dpredictsim\Results\batch_windlass\Pog_s1_tmt_bCst_d00_k1500_WL20_ig24_pas_GRF.mot
datacolumns 19
datarows 22
range 0.5287808763 0.7508688444
endheader
time 	ground_force_vx	ground_force_vy	ground_force_vz	ground_force_px	ground_force_py	ground_force_pz	1_ground_force_vx	1_ground_force_vy	1_ground_force_vz	1_ground_force_px	1_ground_force_py	1_ground_force_pz	ground_torque_x	ground_torque_y	ground_torque_z	1_ground_torque_x	1_ground_torque_y	1_ground_torque_z
        0.5287808763	       97.7180752870	      457.8835056948	       -5.1881369403	        0.3316198018	        0.0000000000	        0.0335934667	      -40.1933949074	       30.3568104990	      -10.6400125776	        0.7951610059	        0.0000000000	       -0.0529385506	        0.0000000000	        0.0000000000	        0.0000000000	        0.0000000000	        0.0000000000	        0.0000000000	
        0.5393564938	       77.3170791827	      362.8133468566	       -3.2024709841	        0.3369884142	        0.0000000000	        0.0310930121	      -74.7954224299	       62.9440284866	      -22.5160799277	        0.8069598623	        0.0000000000	       -0.0506023651	        0.0000000000	        0.0000000000	        0.0000000000	        0.0000000000	        0.0000000000	        0.0000000000	
        0.5499321114	       39.4388681333	      250.9845124471	        7.1623018436	        0.3465321677	        0.0000000000	        0.0260590806	     -161.2917628043	      168.1861368161	      -59.1946666875	        0.8200078421	        0.0000000000	       -0.0501533989	        0.0000000000	        0.0000000000	        0.0000000000	        0.0000000000	        0.0000000000	        0.0000000000	
        0.5605077289	       14.8184407214	      160.2763748808	       14.3392805151	        0.3612569827	        0.0000000000	        0.0172135958	      -78.8901280687	      398.5648109869	      -24.7907832748	        0.8329921581	        0.0000000000	       -0.0491358451	        0.0000000000	        0.0000000000	        0.0000000000	        0.0000000000	        0.0000000000	        0.0000000000	
        0.5710833464	        1.2206597545	      128.9786300878	       14.9176111665	        0.3605755559	        0.0000000000	        0.0174495872	      -97.9801088354	      705.4805738204	        8.0147107400	        0.8440442797	        0.0000000000	       -0.0478449688	        0.0000000000	        0.0000000000	        0.0000000000	        0.0000000000	        0.0000000000	        0.0000000000	
        0.5816589639	       -6.5533924966	       87.9417224710	       12.9090753551	        0.3605399348	        0.0000000000	        0.0174103792	     -125.9241100853	      940.0267903404	       15.3308643302	        0.8524660041	        0.0000000000	       -0.0463353528	        0.0000000000	        0.0000000000	        0.0000000000	        0.0000000000	        0.0000000000	        0.0000000000	
        0.5922345815	      -15.5557674211	       38.7118704515	        7.6057758627	        0.3592756524	        0.0000000000	        0.0173122729	     -136.7459326045	      995.4851437317	       15.6413998674	        0.8569392729	        0.0000000000	       -0.0453568773	        0.0000000000	        0.0000000000	        0.0000000000	        0.0000000000	        0.0000000000	        0.0000000000	
        0.6028101990	        0.1203942501	       -0.1171181655	       -0.0054222118	        0.0000000000	        0.0000000000	        0.0000000000	     -124.5118355654	      957.7739352680	       15.2142214637	        0.8590125935	        0.0000000000	       -0.0447228989	        0.0000000000	        0.0000000000	        0.0000000000	        0.0000000000	        0.0000000000	        0.0000000000	
        0.6133858165	        0.0001676179	       -0.0001342467	        0.0000037075	        0.0000000000	        0.0000000000	        0.0000000000	     -107.3623482263	      891.7044934589	       15.5322419813	        0.8611418110	        0.0000000000	       -0.0442305788	        0.0000000000	        0.0000000000	        0.0000000000	        0.0000000000	        0.0000000000	        0.0000000000	
        0.6239614341	        0.0000567486	       -0.0000401444	        0.0000022185	        0.0000000000	        0.0000000000	        0.0000000000	      -91.7579859933	      826.1421214071	       16.1390362261	        0.8634015623	        0.0000000000	       -0.0438616444	        0.0000000000	        0.0000000000	        0.0000000000	        0.0000000000	        0.0000000000	        0.0000000000	
        0.6345370516	        0.0003893106	       -0.0002517344	        0.0000187923	        0.0000000000	        0.0000000000	        0.0000000000	      -78.0675456444	      770.7681991636	       17.1518290547	        0.8657681594	        0.0000000000	       -0.0436038421	        0.0000000000	        0.0000000000	        0.0000000000	        0.0000000000	        0.0000000000	        0.0000000000	
        0.6451126691	        0.0086158219	       -0.0051826088	        0.0004831545	        0.0000000000	        0.0000000000	        0.0000000000	      -65.8071756967	      725.7796825075	       18.1890758458	        0.8683252838	        0.0000000000	       -0.0434366672	        0.0000000000	        0.0000000000	        0.0000000000	        0.0000000000	        0.0000000000	        0.0000000000	
        0.6556882866	       -0.0463905451	        0.0262043938	       -0.0029628215	        0.0000000000	        0.0000000000	        0.0000000000	      -54.5499251233	      689.5995015483	       19.7117963012	        0.8713709523	        0.0000000000	       -0.0433189147	        0.0000000000	        0.0000000000	        0.0000000000	        0.0000000000	        0.0000000000	        0.0000000000	
        0.6662639042	       -0.0437946785	        0.0233789577	       -0.0031609795	        0.0000000000	        0.0000000000	        0.0000000000	      -45.2060753483	      661.7582777627	       21.5742449616	        0.8756318907	        0.0000000000	       -0.0431649539	        0.0000000000	        0.0000000000	        0.0000000000	        0.0000000000	        0.0000000000	        0.0000000000	
        0.6768395217	       -0.0278867295	        0.0141389600	       -0.0022589148	        0.0000000000	        0.0000000000	        0.0000000000	      -38.6421576756	      640.6420178001	       23.1895529399	        0.8807215121	        0.0000000000	       -0.0429684773	        0.0000000000	        0.0000000000	        0.0000000000	        0.0000000000	        0.0000000000	        0.0000000000	
        0.6874151392	       -0.0202065396	        0.0097814637	       -0.0018102417	        0.0000000000	        0.0000000000	        0.0000000000	      -33.5307253346	      624.4985476736	       24.3278672840	        0.8862333379	        0.0000000000	       -0.0427457254	        0.0000000000	        0.0000000000	        0.0000000000	        0.0000000000	        0.0000000000	        0.0000000000	
        0.6979907567	       -0.0183292645	        0.0085186440	       -0.0017815371	        0.0000000000	        0.0000000000	        0.0000000000	      -29.5278963543	      612.2970866333	       24.9201749302	        0.8919779698	        0.0000000000	       -0.0424984930	        0.0000000000	        0.0000000000	        0.0000000000	        0.0000000000	        0.0000000000	        0.0000000000	
        0.7085663743	       -0.0210451557	        0.0094409954	       -0.0021703137	        0.0000000000	        0.0000000000	        0.0000000000	      -26.4363471384	      602.9696565097	       24.6079781049	        0.8976914561	        0.0000000000	       -0.0422470555	        0.0000000000	        0.0000000000	        0.0000000000	        0.0000000000	        0.0000000000	        0.0000000000	
        0.7191419918	       -0.0296199150	        0.0128866801	       -0.0031692183	        0.0000000000	        0.0000000000	        0.0000000000	      -23.7375883149	      595.7876883508	       23.6242930650	        0.9032484198	        0.0000000000	       -0.0419971467	        0.0000000000	        0.0000000000	        0.0000000000	        0.0000000000	        0.0000000000	        0.0000000000	
        0.7297176093	       -0.0484525673	        0.0205270934	       -0.0052814460	        0.0000000000	        0.0000000000	        0.0000000000	      -21.6151758179	      590.9380108726	       22.5178816094	        0.9087564510	        0.0000000000	       -0.0417260838	        0.0000000000	        0.0000000000	        0.0000000000	        0.0000000000	        0.0000000000	        0.0000000000	
        0.7402932268	       -0.0864166298	        0.0357722388	       -0.0094710752	        0.0000000000	        0.0000000000	        0.0000000000	      -20.0986162259	      586.8129523314	       21.2666679226	        0.9140129885	        0.0000000000	       -0.0414541889	        0.0000000000	        0.0000000000	        0.0000000000	        0.0000000000	        0.0000000000	        0.0000000000	
        0.7508688444	       -0.1575851962	        0.0639285919	       -0.0171951214	        0.0000000000	        0.0000000000	        0.0000000000	      -18.3584095909	      582.4795848198	       20.0794262736	        0.9190210425	        0.0000000000	       -0.0411856729	        0.0000000000	        0.0000000000	        0.0000000000	        0.0000000000	        0.0000000000	        0.0000000000	
